<?xml version="1.0" encoding="iso-8859-1"?>
<!-- Generator: Adobe Illustrator 19.0.0, SVG Export Plug-In . SVG Version: 6.00 Build 0)  -->
<svg version="1.1" id="Layer_1" xmlns="http://www.w3.org/2000/svg" xmlns:xlink="http://www.w3.org/1999/xlink" x="0px" y="0px"
	 viewBox="0 0 512 512" style="enable-background:new 0 0 512 512;" xml:space="preserve">
<g>
	<g>
		<g>
			<path  fill="#006666" d="M230.929,204.049c2.526,3.951,7.799,5.111,11.785,2.56c19.217-12.348,41.523-18.876,64.486-18.876
				c65.877,0,119.467,53.589,119.467,119.467c0,10.829-1.442,21.547-4.292,31.863c-1.254,4.54,1.408,9.242,5.948,10.496
				c0.768,0.213,1.527,0.307,2.287,0.307c3.738,0,7.177-2.483,8.218-6.263c3.26-11.793,4.907-24.047,4.907-36.403
				c0-75.281-61.252-136.533-136.533-136.533c-26.24,0-51.738,7.467-73.719,21.589C229.521,194.799,228.378,200.081,230.929,204.049
				z"/>
			<path fill="#006666" d="M366.933,34.133h8.533v8.533c0,4.71,3.814,8.533,8.533,8.533c4.719,0,8.533-3.823,8.533-8.533v-8.533h8.533
				c4.719,0,8.533-3.823,8.533-8.533c0-4.71-3.814-8.533-8.533-8.533h-8.533V8.533C392.533,3.823,388.719,0,384,0
				c-4.719,0-8.533,3.823-8.533,8.533v8.533h-8.533c-4.719,0-8.533,3.823-8.533,8.533C358.4,30.31,362.214,34.133,366.933,34.133z"
				/>
			<path fill="#006666" d="M381.244,248.858c-3.951,2.569-5.069,7.859-2.492,11.81c9.011,13.841,13.781,29.935,13.781,46.532
				c0,4.71,3.814,8.533,8.533,8.533c4.719,0,8.533-3.823,8.533-8.533c0-19.917-5.726-39.228-16.546-55.851
				C390.485,247.398,385.203,246.289,381.244,248.858z"/>
			<path  fill="#006666" d="M460.8,136.533c0,4.71,3.814,8.533,8.533,8.533s8.533-3.823,8.533-8.533c4.719,0,8.533-3.823,8.533-8.533
				s-3.814-8.533-8.533-8.533c0-4.71-3.814-8.533-8.533-8.533s-8.533,3.823-8.533,8.533c-4.719,0-8.533,3.823-8.533,8.533
				S456.081,136.533,460.8,136.533z"/>
			<path  fill="#006666" d="M150.519,90.325c6.451-6.434,17.681-6.434,24.132,0l70.946,70.946c1.672,1.673,3.849,2.5,6.033,2.5
				c2.185,0,4.369-0.828,6.033-2.5c3.337-3.328,3.337-8.73,0-12.066l-70.946-70.946c-6.443-6.443-15.019-9.993-24.132-9.993
				c-9.122,0-17.69,3.55-24.132,9.993c-3.337,3.337-3.337,8.738,0,12.066C141.781,93.662,147.183,93.662,150.519,90.325z"/>
			<path fill="#006666" d="M468.625,325.914c-3.866-2.705-9.173-1.792-11.895,2.048c-2.722,3.849-1.801,9.173,2.048,11.895
				c22.639,16,36.156,42.069,36.156,69.743c0,47.053-38.281,85.333-85.333,85.333H68.267c-28.237,0-51.2-22.963-51.2-51.2
				c0-25.523,19.038-47.334,44.288-50.739c4.668-0.631,7.945-4.924,7.322-9.591c-0.623-4.676-4.838-7.945-9.6-7.322
				C25.404,380.621,0,409.702,0,443.733C0,481.374,30.626,512,68.267,512H409.6c56.465,0,102.4-45.935,102.4-102.4
				C512,376.388,495.787,345.105,468.625,325.914z"/>
			<path fill="#006666" d="M160.853,452.369c6.434,6.451,15.01,10.001,24.132,10.001c9.114,0,17.681-3.55,24.132-10.001
				c6.451-6.443,10.001-15.019,10.001-24.132c0-9.122-3.55-17.69-10.001-24.141l-6.033-6.033c-3.337-3.328-8.738-3.328-12.066,0
				c-3.337,3.337-3.337,8.738,0,12.075l6.033,6.033c3.226,3.217,5,7.501,5,12.066c0,4.557-1.775,8.841-5,12.066
				c-6.451,6.443-17.681,6.443-24.132,0L22.067,289.451c-3.226-3.226-5.001-7.501-5.001-12.066c0-4.557,1.775-8.841,5.001-12.066
				c6.451-6.443,17.681-6.443,24.132,0l36.198,36.198c1.673,1.673,3.849,2.5,6.033,2.5c2.185,0,4.369-0.828,6.033-2.5
				c3.337-3.328,3.337-8.73,0-12.066l-54.298-54.306c-3.226-3.226-5-7.509-5-12.066c0-4.557,1.775-8.849,5-12.066
				c6.647-6.647,17.476-6.656,24.124-0.009l30.174,30.174c1.673,1.664,3.849,2.5,6.033,2.5s4.369-0.836,6.033-2.5
				c3.337-3.328,3.337-8.73,0-12.066l-30.165-30.165v-0.009c0,0-0.009,0-0.009-0.009l-24.124-24.124
				c-3.226-3.226-5.001-7.509-5.001-12.066c0-4.557,1.775-8.841,5.001-12.066c6.451-6.443,17.681-6.443,24.132,0
				c0,0,0.009,0,0.017,0.009l30.157,30.157c3.336,3.337,8.738,3.337,12.066,0c3.337-3.328,3.337-8.73,0-12.066l-54.306-54.306
				c-3.226-3.226-5-7.509-5-12.066c0-4.557,1.775-8.849,5-12.075c6.451-6.434,17.681-6.434,24.132,0l96.555,96.546
				c53.333,53.342,42.803,138.214,0,181.026l-12.066,12.066c-3.337,3.328-3.337,8.73,0,12.066c1.664,1.664,3.849,2.5,6.033,2.5
				c2.185,0,4.36-0.836,6.033-2.5l12.066-12.066c48.512-48.521,60.45-144.708,0-205.158l-96.555-96.546
				c-6.443-6.443-15.01-9.993-24.132-9.993c-9.114,0-17.681,3.55-24.132,9.993C45.781,84.71,42.231,93.286,42.231,102.4
				c0,9.114,3.55,17.69,10.001,24.132l3.345,3.345c-5.76,1.519-11.085,4.403-15.411,8.73c-6.451,6.443-10.001,15.01-10.001,24.132
				s3.55,17.69,10.001,24.132l3.362,3.362c-5.649,1.485-11.008,4.292-15.428,8.704c-6.451,6.451-10.001,15.027-10.001,24.141
				c0,7.885,2.799,15.275,7.689,21.325c-5.914,1.485-11.375,4.429-15.787,8.849C3.55,259.695,0,268.262,0,277.385
				c0,9.122,3.55,17.69,10.001,24.132L160.853,452.369z"/>
			<path fill="#006666" d="M34.133,34.133c0,4.71,3.814,8.533,8.533,8.533s8.533-3.823,8.533-8.533c4.719,0,8.533-3.823,8.533-8.533
				c0-4.71-3.814-8.533-8.533-8.533c0-4.71-3.814-8.533-8.533-8.533s-8.533,3.823-8.533,8.533c-4.719,0-8.533,3.823-8.533,8.533
				C25.6,30.31,29.414,34.133,34.133,34.133z"/>
		</g>
	</g>
</g>
<g>
</g>
<g>
</g>
<g>
</g>
<g>
</g>
<g>
</g>
<g>
</g>
<g>
</g>
<g>
</g>
<g>
</g>
<g>
</g>
<g>
</g>
<g>
</g>
<g>
</g>
<g>
</g>
<g>
</g>
</svg>
