<svg height="512pt" viewBox="0 -21 512 512" width="512pt" xmlns="http://www.w3.org/2000/svg"><path  fill="#006666" d="m342.460938 202.242188 59.183593-88.359376 39.886719 23.027344-28.433594 57.835938 13.488282 6.628906 28.375-57.714844c3.683593 1.179688 7.535156 1.804688 11.417968 1.804688 13.394532 0 25.875-7.199219 32.566406-18.789063 3.296876-5.710937 5.039063-12.195312 5.039063-18.761719 0-13.394531-7.199219-25.871093-18.789063-32.566406l-8.042968-4.644531-7.515625 13.015625 8.042969 4.644531c6.953124 4.015625 11.273437 11.507813 11.273437 19.550781 0 3.929688-1.042969 7.816407-3.023437 11.246094-4.015626 6.957032-11.507813 11.277344-19.550782 11.277344-3.929687 0-7.816406-1.046875-11.246094-3.027344l-52.0625-30.058594c-6.957031-4.015624-11.277343-11.507812-11.277343-19.550781 0-3.929687 1.046875-7.816406 3.027343-11.246093 4.015626-6.953126 11.507813-11.277344 19.550782-11.277344 3.925781 0 7.816406 1.046875 11.242187 3.027344l31.003907 17.902343 7.515624-13.015625-31.003906-17.902344c-5.710937-3.296874-12.195312-5.039062-18.757812-5.039062-13.398438 0-25.875 7.203125-32.566406 18.792969-3.296876 5.707031-5.039063 12.195312-5.039063 18.757812 0 10.683594 4.589844 20.773438 12.324219 27.820313l-59.117188 88.253906zm0 0"/><path  fill="#006666" d="m113.222656 442.535156v-24.273437l-2.964844-2.253907c-58.515624-44.515624-92.902343-111.378906-95.113281-184.382812h15.414063v-15.03125h-30.558594v7.515625c0 40.675781 9.265625 79.570313 27.535156 115.597656 16.855469 33.242188 41.238282 62.894531 70.65625 85.972657v16.855468c0 15.195313 12.359375 27.554688 27.554688 27.554688h56.667968v-15.027344h-56.667968c-6.90625 0-12.523438-5.621094-12.523438-12.527344zm0 0"/><path  fill="#006666" d="m401.742188 416.007812-2.964844 2.253907v24.273437c0 6.90625-5.617188 12.527344-12.523438 12.527344h-188.808594v15.027344h188.808594c15.195313 0 27.554688-12.359375 27.554688-27.554688v-16.855468c31.46875-24.679688 56.996094-56.675782 73.96875-92.746094l-13.601563-6.398438c-16.472656 35.019532-41.519531 65.957032-72.433593 89.472656zm0 0"/><path  fill="#006666" d="m309.105469 216.59375v15.03125h187.75c-.855469 28.132812-6.523438 55.53125-16.882813 81.546875l13.964844 5.5625c11.984375-30.105469 18.0625-61.941406 18.0625-94.625v-7.515625zm0 0"/><path  fill="#006666" d="m88.496094 266.976562c16.265625 10.160157 35.015625 15.53125 54.222656 15.53125 9.246094 0 18.332031-1.234374 27.164062-3.664062 8.839844 2.417969 17.9375 3.660156 27.082032 3.660156 19.203125 0 37.949218-5.371094 54.210937-15.53125 16.734375-10.453125 30.035157-25.535156 38.457031-43.613281 6.023438-12.910156 8.949219-32.976563 8.949219-61.34375 0-21.484375-1.730469-47.398437-5.140625-77.015625l-14.929687 1.71875c3.347656 29.050781 5.042969 54.382812 5.042969 75.296875 0 25.761719-2.539063 44.261719-7.542969 54.992187-14.507813 31.128907-44.796875 50.46875-79.046875 50.46875-.222656 0-.441406-.011718-.664063-.011718 30.429688-18.484375 49.558594-51.746094 49.558594-87.566406 0-14.992188-3.253906-29.574219-9.675781-43.34375-7.847656-16.832032-29.070313-37.015626-53.894532-56.460938 33.5625-24.480469 70.425782-46.703125 87.195313-56.527344 1.78125 10.457032 4.578125 27.859375 7.214844 48.320313l14.90625-1.921875c-4.28125-33.226563-9-58.582032-9.199219-59.648438l-1.929688-10.316406-9.144531 5.144531c-.558593.316407-54.929687 31.007813-101.511719 65.457031-45.792968-33.957031-97.925781-63.449218-101.492187-65.457031l-1.617187-.910156-1.855469-.050781c-1.074219-.027344-6.5.160156-7.738281 6.878906l-.386719 2.148438c-.335938 1.867187-.820313 4.601562-1.410157 8.070312-1.070312 6.3125-2.722656 16.375-4.484374 28.457031-3.117188 21.371094-7.191407 53.304688-8.910157 84.085938l15.007813.835937c2.449218-43.933594 9.785156-90.71875 13.25-111.089844 13 7.613282 38.0625 22.660157 64.234375 40.398438 62.039062 42.046875 82.175781 66.136719 88.148437 78.9375 5.484375 11.765625 8.265625 24.210938 8.265625 36.992188 0 31.25-17.101562 60.222656-44.128906 75.769531l-13.152344-28.203125 18.320313-50.339844-14.121094-5.140625-13.179688 36.214844-12.191406-26.140625 18.320313-50.335938-14.125-5.140625-13.179688 36.214844-21.125-45.308594-13.625 6.351563 21.128907 45.304687-36.214844-13.179687-5.140625 14.125 50.335937 18.320312 12.191406 26.140625-36.214843-13.179687-5.140625 14.125 50.335937 18.320312 13.164063 28.226563c-9.773438 3.609375-19.957032 5.433593-30.375 5.433593-34.253906 0-64.550782-19.335937-79.066406-50.46875-5-10.726562-7.539063-29.230468-7.539063-54.988281 0-3.992187.0625-8.210937.1875-12.542969l-15.023437-.429687c-.128907 4.472656-.191407 8.835937-.191407 12.972656 0 28.363281 2.925781 48.429688 8.945313 61.339844 8.429687 18.082031 21.734375 33.164063 38.46875 43.617187zm0 0"/><path  fill="#006666" d="m223.4375 430.011719h65.125v-35.066407h35.070312v-65.128906h-35.070312v-35.070312h-65.125v35.070312h-35.070312v65.128906h35.070312zm-20.039062-50.097657v-35.070312h35.066406v-35.066406h35.070312v35.066406h35.066406v35.070312h-35.066406v35.070313h-35.070312v-35.070313zm0 0"/><path  fill="#006666" d="m101.417969 388.910156 10.261719-10.980468c-3.527344-3.292969-6.980469-6.746094-10.265626-10.265626l-10.984374 10.257813c3.519531 3.765625 7.214843 7.464844 10.988281 10.988281zm0 0"/><path  fill="#006666" d="m59.546875 336.046875c6.023437 10.550781 12.980469 20.695313 20.671875 30.160156l11.664062-9.480469c-7.175781-8.828124-13.664062-18.292968-19.285156-28.132812zm0 0"/><path  fill="#006666" d="m424.328125 246.652344h50.097656v15.03125h-50.097656zm0 0"/><path  fill="#006666" d="m394.269531 246.652344h15.03125v15.03125h-15.03125zm0 0"/></svg>
