<?xml version="1.0" encoding="iso-8859-1"?>
<!-- Generator: Adobe Illustrator 19.0.0, SVG Export Plug-In . SVG Version: 6.00 Build 0)  -->
<svg version="1.1" id="Capa_1" xmlns="http://www.w3.org/2000/svg" xmlns:xlink="http://www.w3.org/1999/xlink" x="0px" y="0px"
	 viewBox="0 0 480.021 480.021" style="enable-background:new 0 0 480.021 480.021;" xml:space="preserve">
<g>
	<g>
		<path  fill="#006666"  d="M184.052,160.021c-17.673,0-32,14.327-32,32s14.327,32,32,32s32-14.327,32-32S201.726,160.021,184.052,160.021z
			 M184.052,208.021c-8.837,0-16-7.163-16-16s7.163-16,16-16s16,7.163,16,16S192.889,208.021,184.052,208.021z"/>
	</g>
</g>
<g>
	<g>
		<path  fill="#006666" d="M281.469,0.549c-73.266-5.546-142.533,34.052-174.928,100c-11.384,23.072-63.8,170.592-66.024,176.864
			c-1.44,4.177,0.778,8.731,4.955,10.171c0.831,0.286,1.703,0.434,2.581,0.437h48v-16H59.396
			c12.536-35.112,52.24-145.704,61.488-164.464c29.523-60.099,92.658-96.172,159.424-91.088c7.419,0.538,14.791,1.591,22.064,3.152
			l3.36-15.6C297.735,2.301,289.627,1.141,281.469,0.549z"/>
	</g>
</g>
<g>
	<g>
		<path  fill="#006666"  d="M426.604,221.989c-1.462,5.511-3.211,10.943-5.24,16.272c-23.852,60.166-36.497,124.188-37.312,188.904v4.856h-184v-32
			h31.864c17.839-0.06,33.503-11.873,38.464-29.008l25.36-88.8l-15.376-4.4l-25.368,88.8c-2.979,10.281-12.376,17.369-23.08,17.408
			h-79.864v16h32v40c0,4.418,3.582,8,8,8h200c4.418,0,8-3.582,8-8v-12.856c0.82-62.766,13.107-124.853,36.256-183.2
			c2.233-5.855,4.159-11.823,5.768-17.88L426.604,221.989z"/>
	</g>
</g>
<g>
	<g>
		<path  fill="#006666" d="M140.052,304.021h-100c-22.08,0.026-39.974,17.92-40,40v128c0,4.418,3.582,8,8,8h100
			c15.464-0.011,27.991-12.556,27.98-28.02c-0.005-7.518-3.034-14.718-8.404-19.98c11.046-10.785,11.257-28.482,0.473-39.527
			c-0.156-0.159-0.313-0.317-0.473-0.473c8.537-8.355,10.834-21.205,5.72-32h6.704c15.464,0,28-12.536,28-28
			C168.052,316.557,155.516,304.021,140.052,304.021z M140.052,344.021h-76c-4.418,0-8,3.582-8,8s3.582,8,8,8h44
			c6.627,0,12,5.373,12,12c0,6.627-5.373,12-12,12h-44c-4.418,0-8,3.582-8,8s3.582,8,8,8h44c6.627,0,12,5.373,12,12
			c0,6.627-5.373,12-12,12h-44c-4.418,0-8,3.582-8,8s3.582,8,8,8h44c6.627,0,12,5.373,12,12c0,6.627-5.373,12-12,12h-92v-120
			c0-13.255,10.745-24,24-24h100c6.627,0,12,5.373,12,12C152.052,338.648,146.68,344.021,140.052,344.021z"/>
	</g>
</g>
<g>
	<g>
		<path  fill="#006666"  d="M473.06,60.021c-11.418-19.217-33.743-29.109-55.648-24.656C408.142,8.104,378.528-6.48,351.267,2.79
			c-15.327,5.212-27.362,17.248-32.574,32.575c-21.906-4.463-44.237,5.431-55.648,24.656c-11.126,19.234-8.632,43.44,6.184,60
			c-14.816,16.56-17.31,40.766-6.184,60c11.424,19.209,33.749,29.088,55.648,24.624c9.27,27.261,38.885,41.845,66.146,32.575
			c15.327-5.212,27.362-17.248,32.575-32.575c21.899,4.472,44.229-5.409,55.648-24.624c11.126-19.234,8.632-43.44-6.184-60
			C481.692,103.461,484.187,79.254,473.06,60.021z M459.253,172.021c-9.143,15.342-28.069,21.782-44.672,15.2
			c-4.106-1.631-8.757,0.375-10.388,4.481c-0.232,0.584-0.394,1.193-0.484,1.815c-3.046,19.688-21.475,33.179-41.162,30.134
			c-15.538-2.404-27.73-14.595-30.133-30.134c-0.565-3.936-3.935-6.861-7.912-6.864c-1.014,0.002-2.018,0.194-2.96,0.568
			c-16.608,6.584-35.539,0.144-44.688-15.2c-8.825-15.305-4.996-34.776,8.968-45.6c3.495-2.703,4.137-7.728,1.433-11.223
			c-0.415-0.537-0.897-1.018-1.433-1.433c-14.043-10.838-17.879-30.406-8.968-45.744c9.155-15.332,28.074-21.768,44.68-15.2
			c4.106,1.631,8.757-0.375,10.388-4.481c0.232-0.584,0.394-1.193,0.484-1.815c3.046-19.688,21.475-33.179,41.162-30.134
			c15.538,2.404,27.73,14.595,30.133,30.134c0.629,4.373,4.684,7.409,9.057,6.78c0.622-0.089,1.231-0.252,1.815-0.484
			c16.606-6.579,35.531-0.14,44.68,15.2c8.849,15.315,5.018,34.812-8.968,45.64c-3.495,2.703-4.137,7.728-1.433,11.223
			c0.415,0.537,0.897,1.018,1.433,1.433C464.305,137.151,468.139,156.691,459.253,172.021z"/>
	</g>
</g>
<g>
	<g>
		<rect  fill="#006666"  x="360.052" y="112.021" width="16" height="16"/>
	</g>
</g>
<g>
	<g>
		<rect  fill="#006666" x="328.052" y="112.021" width="16" height="16"/>
	</g>
</g>
<g>
	<g>
		<rect  fill="#006666" x="392.052" y="112.021" width="16" height="16"/>
	</g>
</g>
<g>
</g>
<g>
</g>
<g>
</g>
<g>
</g>
<g>
</g>
<g>
</g>
<g>
</g>
<g>
</g>
<g>
</g>
<g>
</g>
<g>
</g>
<g>
</g>
<g>
</g>
<g>
</g>
<g>
</g>
</svg>
