<?xml version="1.0" encoding="iso-8859-1"?>
<!-- Generator: Adobe Illustrator 19.0.0, SVG Export Plug-In . SVG Version: 6.00 Build 0)  -->
<svg version="1.1" id="Capa_1" xmlns="http://www.w3.org/2000/svg" xmlns:xlink="http://www.w3.org/1999/xlink" x="0px" y="0px"
	 viewBox="0 0 512 512" style="enable-background:new 0 0 512 512;" xml:space="preserve">
<g>
	<g>
		<path fill="#006666" d="M466.193,120.123c-25.557-12.947-60.728-23.232-101.968-29.852C354.901,39,309.921,0,256,0
			c-53.921,0-98.901,39-108.224,90.271c-41.233,6.618-76.398,16.901-101.952,29.844C7.95,139.296,0.001,160.021,0.001,174.03
			c0,26.928,27.28,50.251,78.891,67.448c15.454,5.149,32.554,9.54,50.883,13.127c12.842,20.194,30.44,37.14,51.139,49.189
			c22.707,13.218,48.672,20.205,75.087,20.205c26.415,0,52.38-6.987,75.088-20.205c20.698-12.049,38.296-28.995,51.139-49.189
			c18.329-3.587,35.429-7.978,50.883-13.127c51.61-17.197,78.891-40.521,78.891-67.448
			C511.998,160.024,504.05,139.302,466.193,120.123z M165.999,109.999L165.999,109.999C166,60.374,206.374,20,256,20
			c49.626,0,90,40.374,90,89.999v35.243c0,3.846-2.595,7.229-6.31,8.227c-54.751,14.702-112.629,14.703-167.38,0
			c-3.715-0.998-6.31-4.381-6.31-8.227V109.999z M256,303.998c-37.632,0-73.345-16.67-97.725-44.608
			c30.542,4.33,63.627,6.608,97.725,6.608c34.099,0,67.184-2.277,97.725-6.608C329.343,287.328,293.631,303.998,256,303.998z
			 M426.786,222.503c-15.641,5.212-33.079,9.618-51.858,13.156c-0.494,0.055-0.983,0.14-1.462,0.268
			C338.005,242.5,297.846,245.999,256,245.999c-41.848,0-82.01-3.499-117.47-10.072c-0.475-0.126-0.96-0.21-1.449-0.265
			c-18.782-3.539-36.223-7.945-51.867-13.158c-40.834-13.606-65.213-31.727-65.213-48.474c0-20.542,39.525-48.552,125.999-63.197
			v34.409c0,12.877,8.686,24.203,21.122,27.542c29.072,7.807,58.976,11.71,88.877,11.71c29.902,0,59.806-3.903,88.877-11.71
			c12.437-3.34,21.122-14.666,21.122-27.542v-34.409c86.476,14.645,125.999,42.656,125.999,63.197
			C491.999,190.776,467.62,208.897,426.786,222.503z"/>
	</g>
</g>
<g>
	<g>
		<path fill="#006666" d="M450.344,315.558c-16.542,0-30,13.458-30,30s13.458,30,30,30c16.542,0,30-13.458,30-30S466.886,315.558,450.344,315.558z
			 M450.344,355.558c-5.514,0-10-4.486-10-10s4.486-10,10-10s10,4.486,10,10S455.858,355.558,450.344,355.558z"/>
	</g>
</g>
<g>
	<g>
		<path fill="#006666" d="M263.069,209.929c-1.859-1.86-4.44-2.93-7.069-2.93c-2.63,0-5.21,1.07-7.07,2.93s-2.93,4.44-2.93,7.07
			s1.069,5.21,2.93,7.07c1.861,1.86,4.44,2.93,7.07,2.93c2.63,0,5.21-1.07,7.069-2.93c1.86-1.86,2.931-4.44,2.931-7.07
			S264.93,211.789,263.069,209.929z"/>
	</g>
</g>
<g>
	<g>
		<path fill="#006666" d="M81.241,155.869c-1.861-1.86-4.441-2.93-7.07-2.93c-2.64,0-5.21,1.07-7.07,2.93c-1.859,1.86-2.93,4.43-2.93,7.07
			c0,2.63,1.07,5.21,2.93,7.07s4.431,2.93,7.07,2.93c2.63,0,5.2-1.07,7.07-2.93c1.859-1.86,2.93-4.44,2.93-7.07
			C84.171,160.299,83.101,157.729,81.241,155.869z"/>
	</g>
</g>
<g>
	<g>
		<path fill="#006666" d="M444.898,155.859c-1.859-1.86-4.43-2.92-7.069-2.92c-2.63,0-5.21,1.06-7.07,2.92c-1.86,1.87-2.93,4.44-2.93,7.08
			c0,2.63,1.069,5.21,2.93,7.07c1.861,1.86,4.44,2.93,7.07,2.93c2.64,0,5.21-1.07,7.069-2.93c1.86-1.86,2.931-4.44,2.931-7.07
			C447.829,160.299,446.759,157.729,444.898,155.859z"/>
	</g>
</g>
<g>
	<g>
		<path fill="#006666" d="M370.739,199.299c-1.87-1.86-4.441-2.92-7.07-2.92c-2.641,0-5.21,1.06-7.07,2.92c-1.87,1.87-2.93,4.44-2.93,7.07
			c0,2.64,1.06,5.22,2.93,7.08c1.86,1.86,4.43,2.93,7.07,2.93c2.63,0,5.21-1.07,7.07-2.93c1.859-1.87,2.93-4.44,2.93-7.08
			C373.669,203.749,372.599,201.169,370.739,199.299z"/>
	</g>
</g>
<g>
	<g>
		<path fill="#006666" d="M155.399,199.299c-1.859-1.86-4.43-2.93-7.069-2.93c-2.63,0-5.21,1.07-7.07,2.93c-1.86,1.87-2.93,4.44-2.93,7.07
			c0,2.64,1.069,5.22,2.93,7.07c1.86,1.87,4.44,2.94,7.07,2.94c2.64,0,5.21-1.07,7.069-2.94c1.87-1.86,2.931-4.43,2.931-7.07
			C158.33,203.749,157.269,201.169,155.399,199.299z"/>
	</g>
</g>
<g>
	<g>
		<path fill="#006666" d="M196.334,99.781c-5.523,0-10,4.511-10,10.034l-0.001,0.184c0,5.523,4.477,9.967,10,9.967c5.523,0,10-4.511,10-10.034
			l0.001-0.184C206.334,104.225,201.856,99.781,196.334,99.781z"/>
	</g>
</g>
<g>
	<g>
		<path fill="#006666" d="M256,40.333c-22.345,0-43.49,10.837-56.563,28.99c-3.228,4.482-2.213,10.731,2.27,13.959
			c1.768,1.273,3.811,1.886,5.835,1.886c3.106,0,6.169-1.444,8.123-4.157C224.99,68.063,240.069,60.333,256,60.333
			c5.522,0,10-4.477,10-10S261.522,40.333,256,40.333z"/>
	</g>
</g>
<g>
	<g>
		<path fill="#006666" d="M159.492,299.411c-5.176-1.931-10.935,0.704-12.862,5.878l-72,193.216c-1.929,5.176,0.703,10.935,5.878,12.862
			C81.66,511.797,82.84,512,84,512c4.056,0,7.872-2.487,9.371-6.511l72-193.216C167.298,307.098,164.667,301.339,159.492,299.411z"
			/>
	</g>
</g>
<g>
	<g>
		<path fill="#006666" d="M437.369,498.505l-72-193.216c-1.928-5.175-7.685-7.81-12.862-5.878c-5.175,1.928-7.807,7.687-5.878,12.862l72,193.216
			c1.499,4.024,5.314,6.511,9.371,6.511c1.16,0,2.34-0.203,3.491-0.633C436.666,509.439,439.298,503.68,437.369,498.505z"/>
	</g>
</g>
<g>
	<g>
		<path fill="#006666" d="M256,387.913c-5.522,0-10,4.478-10,10v77.085c0,5.522,4.478,10,10,10c5.522,0,10-4.478,10-10v-77.085
			C266,392.391,261.522,387.913,256,387.913z"/>
	</g>
</g>
<g>
	<g>
		<path  fill="#006666" d="M263.069,349.928c-1.859-1.861-4.44-2.93-7.069-2.93c-2.63,0-5.21,1.069-7.07,2.93c-1.86,1.861-2.93,4.44-2.93,7.07
			s1.069,5.21,2.93,7.069c1.86,1.86,4.44,2.931,7.07,2.931c2.63,0,5.21-1.07,7.069-2.931c1.86-1.859,2.931-4.439,2.931-7.069
			S264.93,351.788,263.069,349.928z"/>
	</g>
</g>
<g>
	<g>
		<path fill="#006666" d="M83.034,349.927l-32.98-32.981c-1.875-1.875-4.419-2.929-7.071-2.929s-5.195,1.054-7.071,2.929L2.929,349.927
			c-3.905,3.905-3.905,10.237,0,14.143l32.981,32.981c1.876,1.875,4.419,2.929,7.071,2.929s5.196-1.054,7.071-2.929l32.98-32.981
			C86.939,360.164,86.939,353.832,83.034,349.927z M42.982,375.837l-18.839-18.839l18.839-18.839l18.839,18.839L42.982,375.837z"/>
	</g>
</g>
<g>
	<g>
		<path fill="#006666" d="M501.998,20h-9.683V10c0-5.523-4.478-10-10-10s-10,4.477-10,10v10h-9.682c-5.522,0-10,4.477-10,10s4.478,10,10,10h9.682
			v10c0,5.523,4.478,10,10,10s10-4.477,10-10V40h9.683c5.522,0,10-4.477,10-10S507.52,20,501.998,20z"/>
	</g>
</g>
<g>
	<g>
		<path fill="#006666"  d="M71.07,33.93C69.211,32.07,66.63,31,64.001,31c-2.629,0-5.21,1.07-7.07,2.93s-2.93,4.44-2.93,7.07
			c0,2.64,1.069,5.21,2.93,7.07c1.861,1.86,4.44,2.93,7.07,2.93c2.63,0,5.21-1.07,7.069-2.93c1.86-1.86,2.931-4.44,2.931-7.07
			S72.931,35.79,71.07,33.93z"/>
	</g>
</g>
<g>
	<g>
		<path fill="#006666" d="M509.067,454.867c-1.859-1.86-4.44-2.931-7.069-2.931c-2.63,0-5.21,1.07-7.07,2.931c-1.86,1.859-2.93,4.439-2.93,7.069
			c0,2.63,1.069,5.21,2.93,7.07c1.861,1.86,4.44,2.93,7.07,2.93s5.21-1.069,7.069-2.93c1.86-1.86,2.931-4.44,2.931-7.07
			C511.998,459.306,510.928,456.726,509.067,454.867z"/>
	</g>
</g>
<g>
</g>
<g>
</g>
<g>
</g>
<g>
</g>
<g>
</g>
<g>
</g>
<g>
</g>
<g>
</g>
<g>
</g>
<g>
</g>
<g>
</g>
<g>
</g>
<g>
</g>
<g>
</g>
<g>
</g>
</svg>
