<?xml version="1.0" encoding="UTF-8" standalone="no" ?>
<!DOCTYPE svg PUBLIC "-//W3C//DTD SVG 1.1//EN" "http://www.w3.org/Graphics/SVG/1.1/DTD/svg11.dtd">
<svg xmlns="http://www.w3.org/2000/svg" xmlns:xlink="http://www.w3.org/1999/xlink" version="1.1" width="1024" height="1024" viewBox="0 0 1024 1024" xml:space="preserve">
<desc>Created with Fabric.js 2.4.6</desc>
<defs>
</defs>
<rect x="0" y="0" width="100%" height="100%" fill=""></rect>
<g transform="matrix(1.57 0 0 1 512 512)" id="background-logo"  >
<rect style="stroke: none; stroke-width: 1; stroke-dasharray: none; stroke-linecap: butt; stroke-dashoffset: 0; stroke-linejoin: miter; stroke-miterlimit: 4; fill: rgb(255,255,255); fill-rule: nonzero; opacity: 1;"  x="-325.5" y="-512" rx="0" ry="0" width="651" height="1024" />
</g>
<g transform="matrix(1.57 0 0 1.57 512 452.29)" style="" id="logo-logo"  >
	<g transform="matrix(0.47 0 0 -0.47 0 -113.96)" id="logo-logo"  >
<path style="stroke: none; stroke-width: 1; stroke-dasharray: none; stroke-linecap: butt; stroke-dashoffset: 0; stroke-linejoin: miter; stroke-miterlimit: 4; fill: rgb(0,102,102); fill-rule: nonzero; opacity: 1;"  transform=" translate(-287.81, -1489.59)" d="m 294.254 1470.49 c -3.547 -3.54 -9.336 -3.54 -12.875 0 l -12.649 12.66 c -3.542 3.53 -3.542 9.33 0 12.88 l 12.649 12.63 c 3.539 3.54 9.328 3.54 12.875 0 l 12.641 -12.63 c 3.55 -3.55 3.55 -9.35 0 -12.88 z m -46.988 25.54 c -3.536 -3.55 -3.536 -9.35 0 -12.88 l 34.113 -34.11 c 3.539 -3.53 9.328 -3.53 12.875 0 l 34.113 34.11 c 3.531 3.53 3.531 9.33 0 12.88 l -34.113 34.09 c -3.547 3.55 -9.336 3.55 -12.875 0 l -34.113 -34.09" stroke-linecap="round" />
</g>
	<g transform="matrix(0.47 0 0 -0.47 0 113.96)" id="logo-logo"  >
<path style="stroke: none; stroke-width: 1; stroke-dasharray: none; stroke-linecap: butt; stroke-dashoffset: 0; stroke-linejoin: miter; stroke-miterlimit: 4; fill: rgb(0,102,102); fill-rule: nonzero; opacity: 1;"  transform=" translate(-287.81, -1000.34)" d="m 294.254 981.25 c -3.555 -3.539 -9.344 -3.539 -12.875 0 l -12.652 12.648 c -3.536 3.532 -3.536 9.322 0 12.882 l 12.652 12.63 c 3.531 3.54 9.32 3.54 12.875 0 l 12.641 -12.63 c 3.55 -3.56 3.55 -9.35 0 -12.882 z m -46.988 25.53 c -3.536 -3.56 -3.536 -9.35 0 -12.882 l 34.113 -34.109 c 3.531 -3.527 9.32 -3.527 12.875 0 l 34.113 34.109 c 3.531 3.532 3.531 9.322 0 12.882 l -34.113 34.09 c -3.555 3.55 -9.344 3.55 -12.875 0 l -34.113 -34.09" stroke-linecap="round" />
</g>
	<g transform="matrix(0.47 0 0 -0.47 113.96 0)" id="logo-logo"  >
<path style="stroke: none; stroke-width: 1; stroke-dasharray: none; stroke-linecap: butt; stroke-dashoffset: 0; stroke-linejoin: miter; stroke-miterlimit: 4; fill: rgb(0,102,102); fill-rule: nonzero; opacity: 1;"  transform=" translate(-532.44, -1244.97)" d="m 513.355 1238.54 c -3.535 3.53 -3.535 9.33 0 12.87 l 12.661 12.64 c 3.535 3.55 9.32 3.55 12.871 0 l 12.636 -12.64 c 3.536 -3.54 3.536 -9.34 0 -12.87 l -12.636 -12.64 c -3.551 -3.56 -9.336 -3.56 -12.871 0 z m 25.532 46.98 c -3.551 3.53 -9.336 3.53 -12.871 0 l -34.114 -34.11 c -3.543 -3.54 -3.543 -9.34 0 -12.87 l 34.114 -34.12 c 3.535 -3.53 9.32 -3.53 12.871 0 l 34.097 34.12 c 3.547 3.53 3.547 9.33 0 12.87 l -34.097 34.11" stroke-linecap="round" />
</g>
	<g transform="matrix(0.47 0 0 -0.47 -113.96 0)" id="logo-logo"  >
<path style="stroke: none; stroke-width: 1; stroke-dasharray: none; stroke-linecap: butt; stroke-dashoffset: 0; stroke-linejoin: miter; stroke-miterlimit: 4; fill: rgb(0,102,102); fill-rule: nonzero; opacity: 1;"  transform=" translate(-43.19, -1244.97)" d="m 24.1016 1238.54 c -3.5352 3.55 -3.5352 9.33 0 12.87 l 12.6562 12.65 c 3.5352 3.54 9.3203 3.54 12.8711 0 l 12.6406 -12.65 c 3.5313 -3.54 3.5313 -9.32 0 -12.87 L 49.6289 1225.9 c -3.5508 -3.56 -9.3359 -3.56 -12.8711 0 z m 25.5273 46.98 c -3.5508 3.53 -9.3359 3.53 -12.8711 0 L 2.64453 1251.41 c -3.527343 -3.54 -3.527343 -9.32 0 -12.87 l 34.11327 -34.12 c 3.5352 -3.53 9.3203 -3.53 12.8711 0 l 34.0977 34.12 c 3.5507 3.55 3.5507 9.33 0 12.87 l -34.0977 34.11" stroke-linecap="round" />
</g>
	<g transform="matrix(0.47 0 0 -0.47 80.58 -80.58)" id="logo-logo"  >
<path style="stroke: none; stroke-width: 1; stroke-dasharray: none; stroke-linecap: butt; stroke-dashoffset: 0; stroke-linejoin: miter; stroke-miterlimit: 4; fill: rgb(0,102,102); fill-rule: nonzero; opacity: 1;"  transform=" translate(-460.79, -1417.94)" d="m 451.84 1399.88 c -5.004 0 -9.098 4.1 -9.106 9.1 l 0.008 17.91 c 0 5 4.082 9.09 9.106 9.09 h 17.879 c 5 0 9.097 -4.09 9.113 -9.11 V 1409 c 0 -5.02 -4.094 -9.12 -9.11 -9.1 z m -15.168 51.28 c -5.008 -0.01 -9.098 -4.1 -9.098 -9.11 l -0.011 -48.22 c 0.011 -5.01 4.101 -9.1 9.109 -9.12 l 48.238 0.01 c 5 0 9.094 4.09 9.11 9.11 l -0.016 48.22 c 0.012 5.02 -4.086 9.11 -9.106 9.1 l -48.226 0.01" stroke-linecap="round" />
</g>
	<g transform="matrix(0.47 0 0 -0.47 -80.58 80.58)" id="logo-logo"  >
<path style="stroke: none; stroke-width: 1; stroke-dasharray: none; stroke-linecap: butt; stroke-dashoffset: 0; stroke-linejoin: miter; stroke-miterlimit: 4; fill: rgb(0,102,102); fill-rule: nonzero; opacity: 1;"  transform=" translate(-114.84, -1071.99)" d="m 105.883 1053.94 c -5.008 0.01 -9.1017 4.1 -9.1017 9.11 v 17.89 c 0 5 4.0937 9.09 9.1017 9.1 l 17.887 -0.01 c 5 0 9.089 -4.09 9.105 -9.1 v -17.87 c 0 -5.04 -4.09 -9.12 -9.102 -9.11 z m -15.1642 51.27 c -5.0157 -0.01 -9.1094 -4.11 -9.1094 -9.1 v -48.24 c 0 -5 4.0937 -9.09 9.1094 -9.11 h 48.2342 c 5 0 9.098 4.09 9.11 9.1 l -0.012 48.22 c -0.004 5.04 -4.098 9.13 -9.106 9.12 l -48.2262 0.01" stroke-linecap="round" />
</g>
	<g transform="matrix(0.47 0 0 -0.47 80.58 80.58)" id="logo-logo"  >
<path style="stroke: none; stroke-width: 1; stroke-dasharray: none; stroke-linecap: butt; stroke-dashoffset: 0; stroke-linejoin: miter; stroke-miterlimit: 4; fill: rgb(0,102,102); fill-rule: nonzero; opacity: 1;"  transform=" translate(-460.8, -1071.99)" d="m 442.754 1080.94 c 0.012 5 4.101 9.09 9.105 9.1 l 17.899 -0.01 c 5 0.01 9.094 -4.08 9.094 -9.1 v -17.87 c -0.012 -5.01 -4.106 -9.1 -9.106 -9.11 h -17.875 c -5.019 0 -9.117 4.09 -9.105 9.11 z m 51.273 15.17 c -0.011 5.01 -4.101 9.1 -9.105 9.1 h -48.238 c -5.008 0 -9.102 -4.09 -9.102 -9.1 v -48.25 c 0 -4.99 4.094 -9.08 9.102 -9.1 l 48.226 0.02 c 5.016 -0.02 9.11 4.07 9.106 9.1 l 0.011 48.23" stroke-linecap="round" />
</g>
	<g transform="matrix(0.47 0 0 -0.47 -80.58 -80.58)" id="logo-logo"  >
<path style="stroke: none; stroke-width: 1; stroke-dasharray: none; stroke-linecap: butt; stroke-dashoffset: 0; stroke-linejoin: miter; stroke-miterlimit: 4; fill: rgb(0,102,102); fill-rule: nonzero; opacity: 1;"  transform=" translate(-114.84, -1417.95)" d="m 96.7852 1426.89 c 0.0195 5.02 4.1128 9.11 9.1098 9.11 h 17.906 c 4.988 0 9.086 -4.09 9.094 -9.11 l -0.008 -17.88 c 0 -5.01 -4.098 -9.09 -9.11 -9.11 h -17.863 c -5.031 0 -9.1288 4.1 -9.1093 9.11 z m 51.2808 15.16 c -0.015 5.02 -4.105 9.11 -9.101 9.11 H 90.7227 c -4.9961 0 -9.0899 -4.09 -9.1016 -9.11 v -48.22 c 0 -5 4.0937 -9.1 9.1016 -9.1 h 48.2303 c 5.024 0 9.113 4.1 9.098 9.1 l 0.015 48.22" stroke-linecap="round" />
</g>
	<g transform="matrix(0.47 0 0 -0.47 -25.64 -66.1)" id="logo-logo"  >
<path style="stroke: none; stroke-width: 1; stroke-dasharray: none; stroke-linecap: butt; stroke-dashoffset: 0; stroke-linejoin: miter; stroke-miterlimit: 4; fill: rgb(236,188,35); fill-rule: nonzero; opacity: 1;"  transform=" translate(-232.77, -1386.86)" d="m 240.805 1377.25 c -1.258 -2.86 -4.617 -4.16 -7.465 -2.91 l -10.188 4.51 c -2.855 1.25 -4.152 4.61 -2.898 7.46 l 4.492 10.17 c 1.266 2.85 4.617 4.15 7.473 2.9 l 10.176 -4.49 c 2.855 -1.26 4.16 -4.62 2.898 -7.47 z m -33.008 4.23 c -1.242 -2.85 0.055 -6.22 2.902 -7.47 l 27.465 -12.12 c 2.848 -1.25 6.211 0.06 7.473 2.9 l 12.105 27.48 c 1.258 2.85 -0.043 6.19 -2.894 7.46 l -27.461 12.09 c -2.86 1.28 -6.215 -0.03 -7.465 -2.89 l -12.125 -27.45" stroke-linecap="round" />
</g>
	<g transform="matrix(0.47 0 0 -0.47 25.64 66.11)" id="logo-logo"  >
<path style="stroke: none; stroke-width: 1; stroke-dasharray: none; stroke-linecap: butt; stroke-dashoffset: 0; stroke-linejoin: miter; stroke-miterlimit: 4; fill: rgb(236,188,35); fill-rule: nonzero; opacity: 1;"  transform=" translate(-342.86, -1103.05)" d="m 350.891 1093.43 c -1.266 -2.85 -4.629 -4.15 -7.469 -2.9 l -10.192 4.48 c -2.843 1.26 -4.152 4.62 -2.898 7.48 l 4.504 10.18 c 1.25 2.85 4.605 4.15 7.465 2.9 l 10.179 -4.49 c 2.856 -1.26 4.157 -4.62 2.895 -7.48 z m -33.008 4.23 c -1.25 -2.85 0.051 -6.21 2.902 -7.46 l 27.457 -12.12 c 2.848 -1.25 6.207 0.04 7.477 2.9 l 12.113 27.46 c 1.25 2.84 -0.043 6.21 -2.906 7.46 l -27.461 12.12 c -2.856 1.25 -6.215 -0.05 -7.461 -2.9 l -12.121 -27.46" stroke-linecap="round" />
</g>
	<g transform="matrix(0.47 0 0 -0.47 66.11 -25.64)" id="logo-logo"  >
<path style="stroke: none; stroke-width: 1; stroke-dasharray: none; stroke-linecap: butt; stroke-dashoffset: 0; stroke-linejoin: miter; stroke-miterlimit: 4; fill: rgb(236,188,35); fill-rule: nonzero; opacity: 1;"  transform=" translate(-429.73, -1300.01)" d="m 420.098 1291.98 c -2.848 1.26 -4.145 4.62 -2.895 7.46 l 4.5 10.19 c 1.25 2.85 4.606 4.15 7.461 2.89 l 10.184 -4.49 c 2.843 -1.25 4.16 -4.61 2.898 -7.46 l -4.492 -10.18 c -1.27 -2.86 -4.617 -4.16 -7.473 -2.9 z m 4.238 33 c -2.856 1.25 -6.207 -0.06 -7.465 -2.9 l -12.113 -27.47 c -1.258 -2.84 0.043 -6.2 2.894 -7.46 l 27.465 -12.11 c 2.852 -1.26 6.199 0.05 7.461 2.89 l 12.117 27.46 c 1.266 2.85 -0.047 6.21 -2.902 7.46 l -27.457 12.13" stroke-linecap="round" />
</g>
	<g transform="matrix(0.47 0 0 -0.47 -66.11 25.64)" id="logo-logo"  >
<path style="stroke: none; stroke-width: 1; stroke-dasharray: none; stroke-linecap: butt; stroke-dashoffset: 0; stroke-linejoin: miter; stroke-miterlimit: 4; fill: rgb(236,188,35); fill-rule: nonzero; opacity: 1;"  transform=" translate(-145.9, -1189.92)" d="m 136.273 1181.89 c -2.851 1.28 -4.148 4.63 -2.89 7.48 l 4.492 10.19 c 1.25 2.84 4.613 4.14 7.473 2.88 l 10.172 -4.49 c 2.843 -1.25 4.152 -4.61 2.898 -7.47 l -4.488 -10.18 c -1.258 -2.86 -4.617 -4.16 -7.469 -2.89 z m 4.239 33 c -2.852 1.26 -6.211 -0.04 -7.465 -2.89 l -12.117 -27.47 c -1.25 -2.83 0.054 -6.19 2.898 -7.46 l 27.465 -12.11 c 2.848 -1.26 6.203 0.04 7.473 2.88 l 12.093 27.46 c 1.27 2.87 -0.035 6.23 -2.89 7.48 l -27.457 12.11" stroke-linecap="round" />
</g>
	<g transform="matrix(0.47 0 0 -0.47 28.61 -64.87)" id="logo-logo"  >
<path style="stroke: none; stroke-width: 1; stroke-dasharray: none; stroke-linecap: butt; stroke-dashoffset: 0; stroke-linejoin: miter; stroke-miterlimit: 4; fill: rgb(236,188,35); fill-rule: nonzero; opacity: 1;"  transform=" translate(-349.24, -1384.22)" d="m 348.109 1371.74 c -2.894 -1.13 -6.195 0.33 -7.328 3.23 l -4.023 10.38 c -1.129 2.91 0.32 6.2 3.238 7.33 l 10.375 4.02 c 2.906 1.12 6.199 -0.33 7.328 -3.23 l 4.031 -10.36 c 1.125 -2.91 -0.335 -6.22 -3.246 -7.33 z m -20.336 26.33 c -2.894 -1.13 -4.355 -4.42 -3.226 -7.33 l 10.848 -27.99 c 1.128 -2.89 4.429 -4.35 7.332 -3.24 l 27.98 10.86 c 2.902 1.13 4.352 4.42 3.246 7.34 l -10.871 27.97 c -1.117 2.91 -4.414 4.37 -7.328 3.25 l -27.981 -10.86" stroke-linecap="round" />
</g>
	<g transform="matrix(0.47 0 0 -0.47 -28.62 64.88)" id="logo-logo"  >
<path style="stroke: none; stroke-width: 1; stroke-dasharray: none; stroke-linecap: butt; stroke-dashoffset: 0; stroke-linejoin: miter; stroke-miterlimit: 4; fill: rgb(236,188,35); fill-rule: nonzero; opacity: 1;"  transform=" translate(-226.38, -1105.69)" d="m 225.258 1093.21 c -2.914 -1.12 -6.203 0.33 -7.332 3.25 l -4.031 10.37 c -1.122 2.9 0.328 6.21 3.238 7.33 l 10.379 4.01 c 2.894 1.14 6.199 -0.33 7.332 -3.23 l 4.019 -10.38 c 1.133 -2.91 -0.328 -6.19 -3.238 -7.31 z m -20.348 26.33 c -2.902 -1.13 -4.359 -4.42 -3.23 -7.33 l 10.855 -27.98 c 1.125 -2.91 4.418 -4.36 7.332 -3.24 l 27.985 10.87 c 2.902 1.12 4.355 4.41 3.234 7.31 l -10.856 27.99 c -1.132 2.91 -4.433 4.35 -7.332 3.23 l -27.988 -10.85" stroke-linecap="round" />
</g>
	<g transform="matrix(0.47 0 0 -0.47 64.87 28.61)" id="logo-logo"  >
<path style="stroke: none; stroke-width: 1; stroke-dasharray: none; stroke-linecap: butt; stroke-dashoffset: 0; stroke-linejoin: miter; stroke-miterlimit: 4; fill: rgb(236,188,35); fill-rule: nonzero; opacity: 1;"  transform=" translate(-427.08, -1183.54)" d="m 414.602 1184.67 c -1.122 2.9 0.332 6.2 3.234 7.31 l 10.387 4.05 c 2.906 1.12 6.187 -0.34 7.32 -3.25 l 4.02 -10.38 c 1.125 -2.88 -0.333 -6.19 -3.231 -7.31 l -10.371 -4.04 c -2.902 -1.12 -6.203 0.33 -7.324 3.25 z m 26.332 20.34 c -1.133 2.9 -4.426 4.36 -7.329 3.22 l -27.984 -10.86 c -2.91 -1.12 -4.367 -4.41 -3.238 -7.32 l 10.863 -27.98 c 1.117 -2.9 4.41 -4.36 7.324 -3.23 l 27.981 10.85 c 2.898 1.13 4.359 4.43 3.226 7.34 l -10.843 27.98" stroke-linecap="round" />
</g>
	<g transform="matrix(0.47 0 0 -0.47 -64.88 -28.62)" id="logo-logo"  >
<path style="stroke: none; stroke-width: 1; stroke-dasharray: none; stroke-linecap: butt; stroke-dashoffset: 0; stroke-linejoin: miter; stroke-miterlimit: 4; fill: rgb(236,188,35); fill-rule: nonzero; opacity: 1;"  transform=" translate(-148.55, -1306.39)" d="m 136.059 1307.52 c -1.118 2.91 0.343 6.21 3.234 7.33 l 10.387 4.04 c 2.898 1.11 6.195 -0.34 7.328 -3.25 l 4.015 -10.37 c 1.129 -2.91 -0.32 -6.21 -3.23 -7.34 l -10.367 -4.02 c -2.914 -1.12 -6.211 0.33 -7.328 3.24 z m 26.339 20.33 c -1.136 2.91 -4.429 4.36 -7.332 3.23 l -27.98 -10.85 c -2.898 -1.11 -4.356 -4.41 -3.234 -7.32 l 10.855 -28 c 1.121 -2.88 4.414 -4.34 7.324 -3.21 l 27.973 10.85 c 2.918 1.12 4.367 4.42 3.234 7.31 l -10.84 27.99" stroke-linecap="round" />
</g>
	<g transform="matrix(0.47 0 0 -0.47 0 -45)" id="logo-logo"  >
<path style="stroke: none; stroke-width: 1; stroke-dasharray: none; stroke-linecap: butt; stroke-dashoffset: 0; stroke-linejoin: miter; stroke-miterlimit: 4; fill: rgb(0,102,102); fill-rule: nonzero; opacity: 1;"  transform=" translate(-287.82, -1341.55)" d="m 290.355 1334 c -1.402 -1.38 -3.683 -1.38 -5.082 0 l -4.996 5.01 c -1.398 1.4 -1.398 3.69 0 5.09 l 4.996 4.98 c 1.399 1.41 3.68 1.41 5.082 0 l 5 -4.98 c 1.399 -1.4 1.399 -3.69 0 -5.09 z m -18.546 10.1 c -1.403 -1.4 -1.403 -3.69 0 -5.09 l 13.464 -13.46 c 1.399 -1.41 3.68 -1.41 5.082 0 l 13.473 13.46 c 1.399 1.4 1.399 3.69 0 5.09 l -13.473 13.46 c -1.402 1.4 -3.683 1.4 -5.082 0 l -13.464 -13.46" stroke-linecap="round" />
</g>
	<g transform="matrix(0.47 0 0 -0.47 0 45)" id="logo-logo"  >
<path style="stroke: none; stroke-width: 1; stroke-dasharray: none; stroke-linecap: butt; stroke-dashoffset: 0; stroke-linejoin: miter; stroke-miterlimit: 4; fill: rgb(0,102,102); fill-rule: nonzero; opacity: 1;"  transform=" translate(-287.82, -1148.36)" d="m 290.355 1140.84 c -1.406 -1.41 -3.691 -1.41 -5.082 0 l -5 4.99 c -1.394 1.4 -1.394 3.68 0 5.08 l 5 5 c 1.391 1.38 3.676 1.38 5.082 0 l 5 -5 c 1.399 -1.4 1.399 -3.68 0 -5.08 z m -18.546 10.07 c -1.403 -1.4 -1.403 -3.68 0 -5.08 l 13.464 -13.48 c 1.391 -1.39 3.676 -1.39 5.082 0 l 13.473 13.48 c 1.399 1.4 1.399 3.68 0 5.08 l -13.473 13.46 c -1.406 1.4 -3.691 1.4 -5.082 0 l -13.464 -13.46" stroke-linecap="round" />
</g>
	<g transform="matrix(0.47 0 0 -0.47 45 0)" id="logo-logo"  >
<path style="stroke: none; stroke-width: 1; stroke-dasharray: none; stroke-linecap: butt; stroke-dashoffset: 0; stroke-linejoin: miter; stroke-miterlimit: 4; fill: rgb(0,102,102); fill-rule: nonzero; opacity: 1;"  transform=" translate(-384.41, -1244.97)" d="m 376.875 1242.42 c -1.395 1.41 -1.395 3.68 0 5.08 l 4.996 5 c 1.391 1.41 3.688 1.41 5.082 0 l 4.996 -5 c 1.391 -1.4 1.391 -3.67 0 -5.08 l -4.996 -4.99 c -1.394 -1.39 -3.691 -1.39 -5.082 0 z m 10.078 18.56 c -1.394 1.4 -3.691 1.4 -5.082 0 l -13.469 -13.48 c -1.394 -1.4 -1.394 -3.67 0 -5.08 l 13.469 -13.47 c 1.391 -1.38 3.688 -1.38 5.082 0 l 13.469 13.47 c 1.394 1.41 1.394 3.68 0 5.08 l -13.469 13.48" stroke-linecap="round" />
</g>
	<g transform="matrix(0.47 0 0 -0.47 -45 0)" id="logo-logo"  >
<path style="stroke: none; stroke-width: 1; stroke-dasharray: none; stroke-linecap: butt; stroke-dashoffset: 0; stroke-linejoin: miter; stroke-miterlimit: 4; fill: rgb(0,102,102); fill-rule: nonzero; opacity: 1;"  transform=" translate(-191.22, -1244.97)" d="m 183.684 1242.42 c -1.399 1.41 -1.399 3.69 0 5.08 l 4.992 5 c 1.402 1.41 3.683 1.41 5.086 0 l 4.992 -5 c 1.398 -1.39 1.398 -3.67 0 -5.08 l -4.992 -4.99 c -1.403 -1.39 -3.684 -1.39 -5.086 0 z m 10.078 18.56 c -1.403 1.4 -3.684 1.4 -5.086 0 l -13.465 -13.48 c -1.395 -1.39 -1.395 -3.67 0 -5.08 l 13.465 -13.47 c 1.402 -1.38 3.683 -1.38 5.086 0 l 13.465 13.47 c 1.402 1.41 1.402 3.69 0 5.08 l -13.465 13.48" stroke-linecap="round" />
</g>
	<g transform="matrix(0.47 0 0 -0.47 31.82 -31.82)" id="logo-logo"  >
<path style="stroke: none; stroke-width: 1; stroke-dasharray: none; stroke-linecap: butt; stroke-dashoffset: 0; stroke-linejoin: miter; stroke-miterlimit: 4; fill: rgb(0,102,102); fill-rule: nonzero; opacity: 1;"  transform=" translate(-356.12, -1313.27)" d="m 352.59 1306.13 c -1.985 0 -3.602 1.62 -3.602 3.6 v 7.06 c 0 1.98 1.617 3.6 3.602 3.6 h 7.058 c 1.973 -0.01 3.59 -1.62 3.594 -3.6 v -7.04 c 0 -2 -1.609 -3.62 -3.594 -3.6 z m -5.992 20.26 c -1.981 0 -3.594 -1.62 -3.594 -3.61 l -0.008 -19.05 c 0.008 -1.97 1.621 -3.58 3.602 -3.59 l 19.043 0.01 c 1.976 0 3.589 1.61 3.597 3.58 l -0.008 19.05 c 0.008 1.99 -1.613 3.61 -3.601 3.61 h -19.031" stroke-linecap="round" />
</g>
	<g transform="matrix(0.47 0 0 -0.47 -31.82 31.82)" id="logo-logo"  >
<path style="stroke: none; stroke-width: 1; stroke-dasharray: none; stroke-linecap: butt; stroke-dashoffset: 0; stroke-linejoin: miter; stroke-miterlimit: 4; fill: rgb(0,102,102); fill-rule: nonzero; opacity: 1;"  transform=" translate(-219.51, -1176.66)" d="m 215.977 1169.53 c -1.977 0 -3.594 1.62 -3.594 3.59 v 7.08 c 0 1.97 1.617 3.59 3.594 3.59 h 7.066 c 1.969 0 3.59 -1.62 3.59 -3.59 v -7.08 c 0 -1.97 -1.617 -3.59 -3.59 -3.59 z m -5.997 20.26 c -1.972 -0.01 -3.589 -1.63 -3.589 -3.6 v -19.05 c 0 -1.98 1.617 -3.6 3.589 -3.6 h 19.059 c 1.973 0 3.59 1.62 3.594 3.6 l -0.004 19.03 c 0 1.99 -1.617 3.62 -3.602 3.61 l -19.047 0.01" stroke-linecap="round" />
</g>
	<g transform="matrix(0.47 0 0 -0.47 31.82 31.82)" id="logo-logo"  >
<path style="stroke: none; stroke-width: 1; stroke-dasharray: none; stroke-linecap: butt; stroke-dashoffset: 0; stroke-linejoin: miter; stroke-miterlimit: 4; fill: rgb(0,102,102); fill-rule: nonzero; opacity: 1;"  transform=" translate(-356.12, -1176.66)" d="m 349.004 1180.2 c 0 1.97 1.605 3.59 3.586 3.59 h 7.062 c 1.981 0 3.602 -1.62 3.602 -3.59 v -7.08 c -0.012 -1.97 -1.621 -3.58 -3.602 -3.59 h -7.054 c -1.989 0 -3.594 1.62 -3.594 3.59 z m 20.234 5.99 c 0 1.97 -1.617 3.6 -3.586 3.6 h -19.05 c -1.985 0 -3.598 -1.63 -3.598 -3.6 v -19.05 c 0 -1.98 1.613 -3.6 3.598 -3.6 h 19.039 c 1.98 0 3.597 1.62 3.597 3.61 v 19.04" stroke-linecap="round" />
</g>
	<g transform="matrix(0.47 0 0 -0.47 -31.82 -31.82)" id="logo-logo"  >
<path style="stroke: none; stroke-width: 1; stroke-dasharray: none; stroke-linecap: butt; stroke-dashoffset: 0; stroke-linejoin: miter; stroke-miterlimit: 4; fill: rgb(0,102,102); fill-rule: nonzero; opacity: 1;"  transform=" translate(-219.52, -1313.27)" d="m 212.387 1316.8 c 0.008 1.97 1.617 3.59 3.593 3.59 h 7.067 c 1.973 0 3.59 -1.62 3.59 -3.59 v -7.05 c 0 -2 -1.617 -3.6 -3.594 -3.6 h -7.059 c -1.984 0 -3.597 1.6 -3.589 3.6 z m 20.25 5.98 c -0.008 1.99 -1.621 3.61 -3.598 3.61 h -19.055 c -1.964 0 -3.582 -1.62 -3.589 -3.61 v -19.05 c 0 -1.96 1.617 -3.58 3.589 -3.58 h 19.047 c 1.985 0 3.606 1.62 3.598 3.6 l 0.008 19.03" stroke-linecap="round" />
</g>
</g>
<g transform="matrix(1.57 0 0 1.57 512 733.56)"  >
<path style="stroke: none; stroke-width: 1; stroke-dasharray: none; stroke-linecap: butt; stroke-dashoffset: 0; stroke-linejoin: miter; stroke-miterlimit: 4; fill: rgb(0,102,102); fill-rule: nonzero; opacity: ;"  transform=" translate(-165.46, 15.75)" d="M 5.4 -45.72 L 5.4 -2.34 C 5.4 -1.66 5.65 -1.14 6.15 -0.78 C 6.65 -0.42 7.22 -0.24 7.86 -0.24 L 17.58 -0.24 C 19.66 -0.24 21.7 -0.59 23.7 -1.29 C 25.7 -1.99 27.48 -3.05 29.04 -4.47 C 30.6 -5.89 31.86 -7.68 32.82 -9.84 C 33.78 -12 34.26 -14.54 34.26 -17.46 L 34.26 -30.6 C 34.26 -33.52 33.78 -36.06 32.82 -38.22 C 31.86 -40.38 30.6 -42.17 29.04 -43.59 C 27.48 -45.01 25.7 -46.07 23.7 -46.77 C 21.7 -47.47 19.66 -47.82 17.58 -47.82 L 7.86 -47.82 C 7.22 -47.82 6.65 -47.64 6.15 -47.28 C 5.65 -46.92 5.4 -46.4 5.4 -45.72 Z M 10.32 -41.94 C 10.32 -42.58 10.64 -42.9 11.28 -42.9 L 17.58 -42.9 C 19.06 -42.9 20.51 -42.66 21.93 -42.18 C 23.35 -41.7 24.61 -40.96 25.71 -39.96 C 26.81 -38.96 27.69 -37.68 28.35 -36.12 C 29.01 -34.56 29.34 -32.72 29.34 -30.6 L 29.34 -17.46 C 29.34 -15.34 29.01 -13.5 28.35 -11.94 C 27.69 -10.38 26.81 -9.1 25.71 -8.1 C 24.61 -7.1 23.35 -6.36 21.93 -5.88 C 20.51 -5.4 19.06 -5.16 17.58 -5.16 L 11.28 -5.16 C 10.64 -5.16 10.32 -5.48 10.32 -6.12 Z M 48.12 -16.08 C 48.12 -17.88 48.39 -19.53 48.93 -21.03 C 49.47 -22.53 50.25 -23.83 51.27 -24.93 C 52.29 -26.03 53.52 -26.89 54.96 -27.51 C 56.4 -28.13 58.04 -28.44 59.88 -28.44 C 61.28 -28.44 62.49 -28.26 63.51 -27.9 C 64.53 -27.54 65.38 -27.36 66.06 -27.36 C 66.66 -27.36 67.15 -27.54 67.53 -27.9 C 67.91 -28.26 68.16 -28.68 68.28 -29.16 C 68.4 -29.64 68.37 -30.13 68.19 -30.63 C 68.01 -31.13 67.66 -31.52 67.14 -31.8 C 66.66 -32.08 66.12 -32.32 65.52 -32.52 C 64.92 -32.72 64.29 -32.88 63.63 -33 C 62.97 -33.12 62.31 -33.21 61.65 -33.27 C 60.99 -33.33 60.4 -33.36 59.88 -33.36 C 57.36 -33.36 55.08 -32.92 53.04 -32.04 C 51 -31.16 49.25 -29.95 47.79 -28.41 C 46.33 -26.87 45.2 -25.05 44.4 -22.95 C 43.6 -20.85 43.2 -18.56 43.2 -16.08 L 43.2 -2.1 C 43.2 -1.38 43.46 -0.85 43.98 -0.51 C 44.5 -0.17 45.06 0 45.66 0 C 46.26 0 46.82 -0.17 47.34 -0.51 C 47.86 -0.85 48.12 -1.38 48.12 -2.1 Z M 107.22 -15.96 C 107.22 -18.88 106.73 -21.41 105.75 -23.55 C 104.77 -25.69 103.49 -27.47 101.91 -28.89 C 100.33 -30.31 98.55 -31.37 96.57 -32.07 C 94.59 -32.77 92.58 -33.12 90.54 -33.12 C 88.5 -33.12 86.48 -32.77 84.48 -32.07 C 82.48 -31.37 80.69 -30.31 79.11 -28.89 C 77.53 -27.47 76.26 -25.68 75.3 -23.52 C 74.34 -21.36 73.86 -18.82 73.86 -15.9 C 73.86 -12.98 74.35 -10.44 75.33 -8.28 C 76.31 -6.12 77.58 -4.32 79.14 -2.88 C 80.7 -1.44 82.48 -0.37 84.48 0.33 C 86.48 1.03 88.5 1.38 90.54 1.38 C 93.1 1.38 95.5 0.88 97.74 -0.12 C 98.42 -0.44 98.83 -0.9 98.97 -1.5 C 99.11 -2.1 99.04 -2.68 98.76 -3.24 C 98.52 -3.8 98.24 -4.19 97.92 -4.41 C 97.6 -4.63 97.29 -4.77 96.99 -4.83 C 96.69 -4.89 96.43 -4.88 96.21 -4.8 C 95.99 -4.72 95.84 -4.66 95.76 -4.62 C 94.12 -3.9 92.38 -3.54 90.54 -3.54 C 88.42 -3.54 86.42 -4.02 84.54 -4.98 C 82.66 -5.94 81.2 -7.44 80.16 -9.48 L 105.12 -13.44 C 105.76 -13.56 106.27 -13.86 106.65 -14.34 C 107.03 -14.82 107.22 -15.36 107.22 -15.96 Z M 79.62 -14.4 C 79.14 -14.32 78.86 -14.54 78.78 -15.06 L 78.78 -15.9 C 78.78 -18.02 79.11 -19.86 79.77 -21.42 C 80.43 -22.98 81.31 -24.26 82.41 -25.26 C 83.51 -26.26 84.76 -27 86.16 -27.48 C 87.56 -27.96 89.02 -28.2 90.54 -28.2 C 91.82 -28.2 93.09 -28.02 94.35 -27.66 C 95.61 -27.3 96.76 -26.73 97.8 -25.95 C 98.84 -25.17 99.73 -24.19 100.47 -23.01 C 101.21 -21.83 101.74 -20.44 102.06 -18.84 C 102.1 -18.64 102.07 -18.44 101.97 -18.24 C 101.87 -18.04 101.7 -17.92 101.46 -17.88 Z M 146.34 -2.34 L 146.34 -29.88 C 146.34 -30.64 146.08 -31.22 145.56 -31.62 C 145.04 -32.02 144.44 -32.22 143.76 -32.22 C 143.32 -32.22 142.9 -32.12 142.5 -31.92 C 142.1 -31.72 141.8 -31.4 141.6 -30.96 C 141.48 -30.72 141.31 -30.51 141.09 -30.33 C 140.87 -30.15 140.62 -30.06 140.34 -30.06 C 140.06 -30.06 139.78 -30.16 139.5 -30.36 C 138.06 -31.36 136.49 -32.11 134.79 -32.61 C 133.09 -33.11 131.38 -33.36 129.66 -33.36 C 127.62 -33.36 125.6 -33.01 123.6 -32.31 C 121.6 -31.61 119.82 -30.55 118.26 -29.13 C 116.7 -27.71 115.43 -25.92 114.45 -23.76 C 113.47 -21.6 112.98 -19.06 112.98 -16.14 C 112.98 -13.22 113.47 -10.68 114.45 -8.52 C 115.43 -6.36 116.7 -4.56 118.26 -3.12 C 119.82 -1.68 121.6 -0.61 123.6 0.09 C 125.6 0.79 127.62 1.14 129.66 1.14 C 131.38 1.14 133.09 0.89 134.79 0.39 C 136.49 -0.11 138.06 -0.86 139.5 -1.86 C 139.78 -2.06 140.06 -2.16 140.34 -2.16 C 140.9 -2.16 141.32 -1.88 141.6 -1.32 C 141.8 -0.88 142.1 -0.55 142.5 -0.33 C 142.9 -0.11 143.32 0 143.76 0 C 144.44 0 145.04 -0.2 145.56 -0.6 C 146.08 -1 146.34 -1.58 146.34 -2.34 Z M 129.66 -28.44 C 131.14 -28.44 132.59 -28.2 134.01 -27.72 C 135.43 -27.24 136.69 -26.5 137.79 -25.5 C 138.89 -24.5 139.77 -23.22 140.43 -21.66 C 141.09 -20.1 141.42 -18.26 141.42 -16.14 C 141.42 -13.98 141.09 -12.13 140.43 -10.59 C 139.77 -9.05 138.89 -7.77 137.79 -6.75 C 136.69 -5.73 135.43 -4.98 134.01 -4.5 C 132.59 -4.02 131.14 -3.78 129.66 -3.78 C 128.18 -3.78 126.73 -4.02 125.31 -4.5 C 123.89 -4.98 122.63 -5.73 121.53 -6.75 C 120.43 -7.77 119.55 -9.05 118.89 -10.59 C 118.23 -12.13 117.9 -13.98 117.9 -16.14 C 117.9 -18.26 118.23 -20.1 118.89 -21.66 C 119.55 -23.22 120.43 -24.5 121.53 -25.5 C 122.63 -26.5 123.88 -27.24 125.28 -27.72 C 126.68 -28.2 128.14 -28.44 129.66 -28.44 Z M 161.7 -31.2 C 161.5 -31.6 161.21 -31.87 160.83 -32.01 C 160.45 -32.15 160.04 -32.22 159.6 -32.22 C 158.84 -32.22 158.24 -31.99 157.8 -31.53 C 157.36 -31.07 157.14 -30.6 157.14 -30.12 L 157.14 -2.1 C 157.14 -1.42 157.39 -0.9 157.89 -0.54 C 158.39 -0.18 158.96 0 159.6 0 C 160.24 0 160.81 -0.18 161.31 -0.54 C 161.81 -0.9 162.06 -1.42 162.06 -2.1 L 162.06 -16.2 C 162.06 -18.32 162.4 -20.15 163.08 -21.69 C 163.76 -23.23 164.65 -24.5 165.75 -25.5 C 166.85 -26.5 168.1 -27.24 169.5 -27.72 C 170.9 -28.2 172.34 -28.44 173.82 -28.44 C 175.3 -28.44 176.75 -28.2 178.17 -27.72 C 179.59 -27.24 180.85 -26.49 181.95 -25.47 C 183.05 -24.45 183.93 -23.17 184.59 -21.63 C 185.25 -20.09 185.58 -18.24 185.58 -16.08 L 185.58 -2.1 C 185.58 -1.42 185.83 -0.9 186.33 -0.54 C 186.83 -0.18 187.4 0 188.04 0 C 188.68 0 189.25 -0.18 189.75 -0.54 C 190.25 -0.9 190.5 -1.42 190.5 -2.1 L 190.5 -16.14 C 190.5 -18.26 190.83 -20.1 191.49 -21.66 C 192.15 -23.22 193.03 -24.5 194.13 -25.5 C 195.23 -26.5 196.48 -27.24 197.88 -27.72 C 199.28 -28.2 200.74 -28.44 202.26 -28.44 C 203.74 -28.44 205.19 -28.2 206.61 -27.72 C 208.03 -27.24 209.29 -26.5 210.39 -25.5 C 211.49 -24.5 212.37 -23.22 213.03 -21.66 C 213.69 -20.1 214.02 -18.26 214.02 -16.14 L 214.02 -2.1 C 214.02 -1.42 214.27 -0.9 214.77 -0.54 C 215.27 -0.18 215.84 0 216.48 0 C 217.12 0 217.69 -0.18 218.19 -0.54 C 218.69 -0.9 218.94 -1.42 218.94 -2.1 L 218.94 -16.08 C 218.94 -19 218.45 -21.55 217.47 -23.73 C 216.49 -25.91 215.22 -27.71 213.66 -29.13 C 212.1 -30.55 210.32 -31.61 208.32 -32.31 C 206.32 -33.01 204.3 -33.36 202.26 -33.36 C 199.5 -33.36 196.83 -32.74 194.25 -31.5 C 191.67 -30.26 189.6 -28.34 188.04 -25.74 C 186.48 -28.34 184.41 -30.26 181.83 -31.5 C 179.25 -32.74 176.58 -33.36 173.82 -33.36 C 172.06 -33.36 170.34 -33.12 168.66 -32.64 C 166.98 -32.16 165.42 -31.4 163.98 -30.36 C 163.7 -30.16 163.4 -30.06 163.08 -30.06 C 162.76 -30.06 162.48 -30.19 162.24 -30.45 C 162 -30.71 161.82 -30.96 161.7 -31.2 Z M 233.52 -31.2 C 233.32 -31.6 233.03 -31.87 232.65 -32.01 C 232.27 -32.15 231.86 -32.22 231.42 -32.22 C 230.66 -32.22 230.06 -31.99 229.62 -31.53 C 229.18 -31.07 228.96 -30.6 228.96 -30.12 L 228.96 -2.1 C 228.96 -1.42 229.21 -0.9 229.71 -0.54 C 230.21 -0.18 230.78 0 231.42 0 C 232.06 0 232.63 -0.18 233.13 -0.54 C 233.63 -0.9 233.88 -1.42 233.88 -2.1 L 233.88 -16.2 C 233.88 -18.32 234.22 -20.15 234.9 -21.69 C 235.58 -23.23 236.47 -24.5 237.57 -25.5 C 238.67 -26.5 239.92 -27.24 241.32 -27.72 C 242.72 -28.2 244.16 -28.44 245.64 -28.44 C 247.12 -28.44 248.57 -28.2 249.99 -27.72 C 251.41 -27.24 252.67 -26.49 253.77 -25.47 C 254.87 -24.45 255.75 -23.17 256.41 -21.63 C 257.07 -20.09 257.4 -18.24 257.4 -16.08 L 257.4 -2.1 C 257.4 -1.42 257.65 -0.9 258.15 -0.54 C 258.65 -0.18 259.22 0 259.86 0 C 260.5 0 261.07 -0.18 261.57 -0.54 C 262.07 -0.9 262.32 -1.42 262.32 -2.1 L 262.32 -16.14 C 262.32 -18.26 262.65 -20.1 263.31 -21.66 C 263.97 -23.22 264.85 -24.5 265.95 -25.5 C 267.05 -26.5 268.3 -27.24 269.7 -27.72 C 271.1 -28.2 272.56 -28.44 274.08 -28.44 C 275.56 -28.44 277.01 -28.2 278.43 -27.72 C 279.85 -27.24 281.11 -26.5 282.21 -25.5 C 283.31 -24.5 284.19 -23.22 284.85 -21.66 C 285.51 -20.1 285.84 -18.26 285.84 -16.14 L 285.84 -2.1 C 285.84 -1.42 286.09 -0.9 286.59 -0.54 C 287.09 -0.18 287.66 0 288.3 0 C 288.94 0 289.51 -0.18 290.01 -0.54 C 290.51 -0.9 290.76 -1.42 290.76 -2.1 L 290.76 -16.08 C 290.76 -19 290.27 -21.55 289.29 -23.73 C 288.31 -25.91 287.04 -27.71 285.48 -29.13 C 283.92 -30.55 282.14 -31.61 280.14 -32.31 C 278.14 -33.01 276.12 -33.36 274.08 -33.36 C 271.32 -33.36 268.65 -32.74 266.07 -31.5 C 263.49 -30.26 261.42 -28.34 259.86 -25.74 C 258.3 -28.34 256.23 -30.26 253.65 -31.5 C 251.07 -32.74 248.4 -33.36 245.64 -33.36 C 243.88 -33.36 242.16 -33.12 240.48 -32.64 C 238.8 -32.16 237.24 -31.4 235.8 -30.36 C 235.52 -30.16 235.22 -30.06 234.9 -30.06 C 234.58 -30.06 234.3 -30.19 234.06 -30.45 C 233.82 -30.71 233.64 -30.96 233.52 -31.2 Z M 320.88 -30.96 L 311.46 -8.7 L 302.04 -30.84 C 301.76 -31.52 301.33 -31.94 300.75 -32.1 C 300.17 -32.26 299.56 -32.2 298.92 -31.92 C 298.28 -31.64 297.81 -31.24 297.51 -30.72 C 297.21 -30.2 297.2 -29.6 297.48 -28.92 L 308.4 -3.36 C 308.64 -2.72 308.64 -2.08 308.4 -1.44 L 306.24 3.6 C 305.04 6.4 303.49 8.4 301.59 9.6 C 299.69 10.8 297.7 11.4 295.62 11.4 C 294.74 11.4 293.88 11.3 293.04 11.1 C 292.2 10.9 291.38 10.64 290.58 10.32 C 290.02 10.12 289.46 10.15 288.9 10.41 C 288.34 10.67 287.92 11.14 287.64 11.82 C 287.4 12.5 287.39 13.13 287.61 13.71 C 287.83 14.29 288.18 14.68 288.66 14.88 C 289.74 15.32 290.86 15.67 292.02 15.93 C 293.18 16.19 294.36 16.32 295.56 16.32 C 297.04 16.32 298.51 16.11 299.97 15.69 C 301.43 15.27 302.82 14.63 304.14 13.77 C 305.46 12.91 306.69 11.8 307.83 10.44 C 308.97 9.08 309.94 7.44 310.74 5.52 L 325.38 -29.04 C 325.58 -29.52 325.57 -30.05 325.35 -30.63 C 325.13 -31.21 324.66 -31.66 323.94 -31.98 C 323.38 -32.22 322.78 -32.23 322.14 -32.01 C 321.5 -31.79 321.08 -31.44 320.88 -30.96 Z" stroke-linecap="round" />
</g>
</svg>
